<?xml version="1.0" encoding="UTF-8" standalone="no"?>
<!-- Created with Inkscape (http://www.inkscape.org/) -->
<svg
   xmlns:dc="http://purl.org/dc/elements/1.1/"
   xmlns:cc="http://web.resource.org/cc/"
   xmlns:rdf="http://www.w3.org/1999/02/22-rdf-syntax-ns#"
   xmlns:svg="http://www.w3.org/2000/svg"
   xmlns="http://www.w3.org/2000/svg"
   xmlns:sodipodi="http://sodipodi.sourceforge.net/DTD/sodipodi-0.dtd"
   xmlns:inkscape="http://www.inkscape.org/namespaces/inkscape"
   width="744.09448819"
   height="1052.3622047"
   id="svg2"
   sodipodi:version="0.32"
   inkscape:version="0.45"
   sodipodi:modified="TRUE">
  <defs
     id="defs4">
    <filter
       inkscape:collect="always"
       id="filter3245">
      <feGaussianBlur
         inkscape:collect="always"
         stdDeviation="1.6605267"
         id="feGaussianBlur3247" />
    </filter>
  </defs>
  <sodipodi:namedview
     id="base"
     pagecolor="#ffffff"
     bordercolor="#666666"
     borderopacity="1.0"
     gridtolerance="10000"
     guidetolerance="10"
     objecttolerance="10"
     inkscape:pageopacity="0.0"
     inkscape:pageshadow="2"
     inkscape:zoom="2.0077765"
     inkscape:cx="366.74003"
     inkscape:cy="890.13107"
     inkscape:document-units="px"
     inkscape:current-layer="layer1"
     inkscape:window-width="1024"
     inkscape:window-height="714"
     inkscape:window-x="0"
     inkscape:window-y="0" />
  <metadata
     id="metadata7">
    <rdf:RDF>
      <cc:Work
         rdf:about="">
        <dc:format>image/svg+xml</dc:format>
        <dc:type
           rdf:resource="http://purl.org/dc/dcmitype/StillImage" />
      </cc:Work>
    </rdf:RDF>
  </metadata>
  <g
     inkscape:label="Layer 1"
     inkscape:groupmode="layer"
     id="layer1">
    <path
       transform="matrix(1.0680265,0,0,0.8000362,-53.047518,-122.95082)"
       style="font-size:144px;font-style:italic;font-variant:normal;font-weight:bold;font-stretch:normal;text-align:start;line-height:100%;writing-mode:lr-tb;text-anchor:start;fill:#09ea1f;fill-opacity:1;stroke:#000000;stroke-width:2.88795161;stroke-miterlimit:4;stroke-opacity:1;filter:url(#filter3245);font-family:URW Chancery L"
       d="M 178.67875,387.20528 C 182.42275,387.20528 182.56675,387.20528 187.03075,387.34928 L 191.92675,387.34928 L 196.96675,387.34928 C 207.04674,387.63728 207.04675,387.63728 209.35075,387.63728 C 219.14274,387.63728 226.63076,385.76528 236.27875,380.86928 C 249.23874,374.38929 255.57475,366.03727 255.57475,355.66928 C 255.57475,351.20529 253.41475,347.02928 249.81475,344.29328 C 246.79075,341.98929 243.62274,341.12528 236.71075,340.40528 C 250.96674,333.92529 258.16675,326.00527 258.16675,316.78928 C 258.16675,307.28529 250.39073,303.10928 232.67875,303.10928 L 230.37475,303.10928 L 231.52675,298.64528 L 219.86275,303.68528 C 207.47876,305.55728 200.56674,307.71729 193.94275,311.60528 C 182.42276,318.66128 176.51875,328.7413 176.51875,341.41328 C 176.51875,344.29328 176.80675,346.45329 177.52675,350.77328 L 189.04675,345.44528 C 187.75075,339.10929 187.60675,337.52528 187.60675,334.78928 C 187.60675,324.99729 190.63076,318.94928 197.97475,314.19728 C 203.73474,310.45329 209.49476,308.72528 218.56675,308.14928 L 207.91075,350.77328 C 201.86276,375.68526 199.41474,378.85328 185.44675,380.29328 L 178.67875,387.20528 M 219.86275,345.30128 C 222.74275,345.01328 224.03875,345.01328 225.47875,345.01328 C 236.56674,345.01328 243.04675,350.05329 243.04675,358.98128 C 243.04675,364.45328 240.74275,370.78929 237.14275,374.82128 C 233.25475,379.28528 227.49474,381.58928 220.29475,381.58928 C 216.69475,381.58928 212.51874,381.15728 198.98275,379.71728 C 213.09474,367.1893 215.39875,363.73327 218.42275,350.77328 L 219.86275,345.30128 M 229.36675,307.14128 C 236.42274,307.28528 238.00675,307.57328 240.02275,308.58128 C 243.47875,310.30928 245.63875,314.48529 245.63875,319.09328 C 245.63875,325.86128 242.32674,332.77329 237.28675,336.51728 C 232.96675,339.82928 228.64674,341.12528 220.87075,341.26928 L 229.36675,307.14128 M 321.223,368.62928 C 310.42301,375.82928 308.263,377.12528 306.823,377.12528 C 305.815,377.12528 305.095,375.97328 305.095,374.24528 C 305.095,370.50129 308.55101,354.66126 313.735,335.50928 C 315.319,333.34929 315.607,332.91728 317.911,330.32528 C 310.99901,328.74128 305.95899,328.16528 299.767,328.16528 C 293.86301,328.16528 291.127,328.74129 287.383,331.04528 C 282.19901,334.06928 276.151,338.53329 274.279,340.54928 C 268.95101,346.59728 262.903,366.03729 262.903,377.70128 C 262.903,384.61328 265.207,389.22128 268.807,389.22128 C 271.975,389.22128 276.72702,386.34127 294.727,373.38128 C 293.287,380.00528 292.567,384.46928 292.567,386.19728 C 292.567,388.06928 293.431,389.22128 294.871,389.22128 C 296.599,389.22128 296.59901,389.22128 308.119,381.87728 C 312.295,379.14129 315.60701,376.83728 321.079,372.80528 L 321.223,368.62928 M 293.143,369.49328 C 284.64701,375.68528 280.327,378.13328 277.735,378.13328 C 275.431,378.13328 273.991,375.54128 273.991,370.93328 C 273.991,363.73329 276.295,353.94127 279.895,345.73328 C 283.351,337.81329 286.519,334.78928 291.415,334.78928 C 294.007,334.78928 298.47101,335.50928 303.655,336.66128 C 300.775,347.60527 299.767,350.91728 299.623,351.63728 C 298.759,355.23728 298.039,358.83729 297.175,362.58128 C 297.031,363.30128 296.599,365.02929 295.879,367.62128 L 293.143,369.49328 M 333.33475,384.61328 L 341.83075,350.77328 C 359.83073,339.39729 360.26275,339.25328 362.27875,339.25328 C 363.28675,339.25328 363.86275,339.97328 363.86275,341.12528 C 363.86275,343.28528 362.71075,348.7573 358.53475,365.17328 C 355.36675,377.98927 354.79075,380.43729 354.79075,383.17328 C 354.79075,385.18928 355.36675,387.06129 356.95075,389.65328 C 363.57474,386.62929 373.51076,380.43728 383.59075,372.94928 L 384.59875,368.91728 C 370.19876,377.12527 369.62275,377.41328 368.18275,377.41328 C 366.74275,377.41328 365.87875,375.82928 365.87875,373.52528 C 365.87875,370.50129 366.88675,365.74927 369.62275,355.81328 C 376.39074,331.62131 376.39075,331.62128 376.39075,330.61328 C 376.39075,329.02928 375.38275,328.16528 373.51075,328.16528 C 371.35075,328.16528 368.18274,329.46129 362.99875,332.77328 C 360.40675,334.35728 353.78274,338.38929 343.27075,345.01328 C 344.56675,340.26129 346.72675,331.18928 346.72675,330.03728 C 346.72675,329.02928 345.86275,328.16528 344.85475,328.16528 C 343.27075,328.16528 332.90274,333.49329 322.24675,339.82928 L 321.38275,343.57328 C 330.59874,339.39729 331.17475,339.25328 332.47075,339.25328 C 333.47875,339.25328 334.19875,340.11728 334.19875,341.26928 C 334.19875,344.29328 331.46275,356.2453 327.86275,369.34928 L 324.55075,381.01328 C 324.26275,382.02128 323.54275,384.75729 322.53475,388.78928 L 333.33475,384.61328 M 388.6555,389.79728 L 393.2635,385.90928 C 397.2955,387.34928 400.3195,388.06928 403.0555,388.06928 C 405.9355,388.06928 408.5275,387.20528 412.2715,384.90128 C 415.2955,382.88529 418.6075,381.01328 422.0635,378.99728 C 427.10349,376.26129 430.2715,373.09328 432.7195,368.48528 C 437.3275,360.27729 440.7835,347.60527 440.7835,339.10928 C 440.7835,332.48529 437.47149,328.16528 432.2875,328.16528 C 427.5355,328.16528 423.50349,330.32529 409.1035,340.54928 C 409.9675,337.23729 410.3995,334.93328 410.6875,333.92528 C 413.8555,318.3733 413.8555,318.37328 414.2875,317.07728 C 415.4395,312.46929 417.5995,306.85328 419.1835,304.11728 C 421.6315,299.94129 424.22351,298.64528 429.6955,298.64528 L 433.7275,298.64528 L 435.8875,298.64528 L 441.7915,290.29328 C 439.7755,290.00528 436.7515,289.86128 435.3115,289.86128 C 430.12751,289.86128 427.53549,291.44529 415.4395,301.38128 C 405.64751,309.30128 405.64749,309.30131 400.6075,331.76528 C 397.8715,343.57327 395.1355,355.38129 392.3995,367.33328 C 389.8075,378.56527 389.5195,380.00529 387.2155,389.22128 L 388.6555,389.79728 M 407.6635,346.45328 C 415.87149,340.40529 420.9115,337.81328 424.2235,337.81328 C 427.1035,337.81328 428.9755,340.54929 428.9755,344.86928 C 428.9755,350.62928 427.2475,359.26929 424.7995,365.46128 C 420.9115,375.10927 415.87149,379.86128 409.5355,379.86128 C 406.6555,379.86128 403.7755,378.99728 400.0315,377.12528 L 407.6635,346.45328 M 445.83925,344.14928 C 451.88724,341.12529 454.62325,339.97328 456.35125,339.97328 C 457.50325,339.97328 458.36725,341.12528 458.36725,342.70928 C 458.36725,344.58128 456.92725,350.77329 454.33525,360.56528 C 450.73525,373.95727 449.87125,377.98929 449.87125,382.16528 C 449.87125,386.19728 451.59925,389.22128 453.90325,389.22128 C 456.06325,389.22128 458.65526,387.92528 465.85525,383.17328 C 477.08724,375.97329 477.08725,375.97328 480.68725,373.52528 C 479.53525,378.13328 478.67125,383.31729 478.67125,385.90928 C 478.67125,387.78128 479.82325,389.22128 481.26325,389.22128 C 484.14325,389.22128 497.82326,381.15728 507.61525,373.81328 L 508.62325,369.49328 C 497.39126,376.11728 493.64725,378.13328 492.06325,378.13328 C 491.05525,378.13328 490.47925,376.98128 490.47925,374.67728 C 490.47925,367.33329 495.80726,345.87726 501.99925,327.58928 C 500.12725,328.59728 498.83125,329.31728 498.25525,329.60528 C 496.52725,330.46928 494.79925,331.33328 492.92725,332.19728 C 492.49525,332.34128 491.63125,332.77328 490.04725,333.63728 C 489.18325,336.94928 486.30325,348.4693 481.55125,368.34128 C 470.46326,375.97328 465.42325,378.85328 463.69525,378.85328 C 462.11125,378.85328 460.95925,376.83728 460.95925,374.10128 C 460.95925,370.78929 462.11125,365.02927 464.55925,355.81328 C 466.14325,350.05329 467.15125,346.02128 467.58325,344.00528 C 468.87925,338.67729 469.88725,334.93328 470.17525,333.92528 C 470.60725,332.34128 470.89525,331.04528 470.89525,330.03728 C 470.89525,328.88528 470.17525,328.16528 469.16725,328.16528 C 467.72725,328.16528 457.21524,333.78129 446.84725,340.26128 L 445.83925,344.14928 M 511.96,388.78928 L 523.048,384.61328 L 533.848,343.57328 C 538.744,339.97329 542.056,338.53328 545.944,338.53328 C 549.112,338.53328 550.984,339.68529 553.576,342.99728 L 557.896,329.31728 C 555.16,328.45328 554.008,328.16528 552.568,328.16528 C 549.976,328.16528 546.952,329.46129 543.064,332.19728 C 538.168,335.79728 536.152,337.23728 534.568,338.38928 C 534.712,337.23728 535,336.51728 535,336.08528 C 536.152,331.33329 536.296,330.46928 536.296,329.74928 C 536.296,328.88528 535.432,328.16528 534.424,328.16528 C 532.552,328.16528 519.87999,334.35729 511.096,339.68528 L 510.664,343.57328 C 518.43999,339.54129 519.304,339.25328 521.032,339.25328 C 522.904,339.25328 523.768,340.26129 523.768,342.27728 C 523.768,344.29328 522.328,351.06129 520.6,357.25328 L 511.96,388.78928 M 543.05275,422.05328 C 547.51675,422.62928 553.85276,423.06128 558.89275,423.06128 C 568.97274,423.06128 574.73276,420.32527 582.94075,411.54128 C 591.29274,402.61329 591.86876,401.02926 596.90875,377.55728 C 601.94874,354.37331 604.68475,343.57327 609.58075,327.58928 C 607.70875,328.59728 606.12475,329.46128 605.54875,329.74928 L 600.50875,332.19728 C 599.78875,332.62928 598.63675,333.06128 597.34075,333.78128 C 593.30875,349.33327 591.00475,358.69329 588.55675,368.77328 C 574.15676,377.70127 573.43675,378.13328 570.98875,378.13328 C 569.11675,378.13328 567.82075,376.11728 567.82075,373.52528 C 567.82075,370.35729 569.11675,363.73327 571.85275,353.50928 C 575.45275,339.2533 577.46875,331.18928 577.46875,329.89328 C 577.46875,328.88528 576.74875,328.16528 575.88475,328.16528 C 574.30075,328.16528 565.08474,333.06129 552.98875,340.26128 L 552.55675,344.14928 C 559.32474,340.69329 560.90875,339.97328 562.49275,339.97328 C 563.93275,339.97328 564.65275,340.83728 564.65275,342.13328 C 564.65275,344.72528 563.64475,349.0453 560.18875,361.71728 C 556.73275,374.24527 556.01275,377.41329 556.01275,381.15728 C 556.01275,385.76528 558.17275,389.22128 561.05275,389.22128 C 563.78875,389.22128 575.30876,382.30927 588.12475,373.09328 C 582.65276,399.44526 582.65275,399.44529 580.92475,404.77328 C 578.62075,412.11728 574.01274,414.85328 564.65275,414.85328 C 560.47675,414.85328 557.30874,414.27728 548.81275,412.26128 L 543.05275,422.05328"
       id="flowRoot2160"
       inkscape:export-filename="/home/e-man/public_html/banbury/Content/images/banburylogo.png"
       inkscape:export-xdpi="26.370001"
       inkscape:export-ydpi="26.370001" />
  </g>
</svg>
